<?xml version="1.0" standalone="no"?>
<!DOCTYPE svg PUBLIC "-//W3C//DTD SVG 20010904//EN"
 "http://www.w3.org/TR/2001/REC-SVG-20010904/DTD/svg10.dtd">
<svg version="1.0" xmlns="http://www.w3.org/2000/svg"
 width="1024.000000pt" height="1024.000000pt" viewBox="0 0 1024.000000 1024.000000"
 preserveAspectRatio="xMidYMid meet">
<metadata>
Created by potrace 1.14, written by Peter Selinger 2001-2017
</metadata>
<g transform="translate(0.000000,1024.000000) scale(0.100000,-0.100000)"
fill="#000000" stroke="none">
<path d="M4704 6885 c-87 -129 -162 -234 -166 -235 -4 0 -40 25 -80 55 -139
105 -342 190 -553 232 -140 27 -444 25 -593 -5 -440 -88 -765 -342 -968 -757
-97 -199 -155 -397 -196 -670 -21 -144 -18 -658 6 -810 53 -345 171 -653 333
-869 l66 -88 -171 -252 -171 -253 77 -57 c42 -31 82 -55 87 -54 6 1 81 107
168 235 l159 234 36 -27 c172 -132 364 -215 597 -261 126 -24 444 -24 570 0
532 104 901 446 1084 1003 83 253 116 483 116 814 0 583 -116 969 -409 1365
-6 8 45 91 158 258 91 135 166 250 166 255 0 11 -134 122 -148 122 -5 0 -80
-106 -168 -235z m-845 -340 c142 -35 285 -108 386 -199 l57 -51 -742 -1085
c-408 -597 -745 -1086 -749 -1088 -11 -4 -76 124 -115 224 -43 112 -80 256
-102 404 -23 144 -26 556 -6 700 67 484 243 811 533 989 85 52 232 105 334
121 85 13 328 4 404 -15z m625 -525 c81 -161 142 -383 166 -605 16 -146 13
-478 -5 -625 -74 -596 -342 -976 -770 -1091 -119 -32 -383 -33 -508 -1 -149
37 -308 123 -392 211 -27 29 -28 33 -15 55 78 122 1464 2146 1470 2146 5 0 29
-41 54 -90z"/>
<path d="M7667 5713 c-3 -1080 -5 -1206 -21 -1283 -37 -188 -102 -353 -182
-461 -88 -121 -244 -226 -389 -264 -200 -52 -454 -34 -620 44 -254 119 -404
387 -474 849 -13 89 -21 117 -32 115 -8 0 -108 -11 -222 -24 l-208 -23 6 -50
c99 -788 438 -1217 1040 -1317 120 -20 437 -17 555 5 250 46 453 148 610 305
212 213 331 512 370 926 6 67 10 552 10 1243 l0 1132 -220 0 -219 0 -4 -1197z"/>
</g>
</svg>
