<?xml version="1.0" encoding="UTF-8"?>
<svg id="Layer_1" data-name="Layer 1" xmlns="http://www.w3.org/2000/svg" viewBox="0 0 248 247">
  <defs>
    <style>
      .cls-1 {
        fill: #005634;
      }

      .cls-2 {
        fill: #fff;
      }

      .cls-3 {
        fill: #d9ff66;
      }

      .cls-4 {
        fill: #e1ff7d;
      }

      .cls-5 {
        fill: #235537;
      }
    </style>
  </defs>
  <circle class="cls-3" cx="123.5" cy="123.5" r="123.5"/>
  <path class="cls-1" d="m3.31,95h240.38C230.82,40.53,181.9,0,123.5,0S16.18,40.53,3.31,95Z"/>
  <path class="cls-1" d="m186.06,123.15v45.61c0,22.64-11.43,31.68-27.22,31.68-17.42,0-25.91-10.67-27.87-29.5l9.47-1.09c1.63,13.93,5.99,22.21,18.4,22.21,10.89,0,17.85-7.4,17.85-23.19v-45.72h9.36Zm-71.37,9.49c5.75,7.03,8.69,17.24,8.69,29.04,0,22.87-11,39.58-32,39.58-7.75,0-14.15-2.26-19.14-6.27l-7.02,10.32-4.7-3.49,7.51-11.03c-5.83-7.02-8.76-17.23-8.76-29.11,0-22.87,11-39.58,32.11-39.58,7.73,0,14.13,2.25,19.12,6.35l7.12-10.45,4.64,3.53-7.56,11.11Zm-41.1,50l31.87-46.79c-3.56-3.41-8.22-5.39-14.07-5.39-15.17,0-22.54,13.19-22.54,31.23,0,8.33,1.52,15.53,4.74,20.96Zm40.23-20.96c0-8.24-1.53-15.46-4.67-20.89l-31.82,46.75c3.48,3.45,8.16,5.37,14.06,5.37,15.06,0,22.43-13.19,22.43-31.23Z"/>
  <path class="cls-2" d="m144.99,79.1h24.87v-4.08h-17.92l5.96-4.86c6.9-5.54,11.6-10.66,11.6-16.93,0-6.84-5.07-11.23-12.28-11.23-6.64,0-12.07,4.39-13.01,14.42l4.34.52c.94-8.05,4.7-11.18,8.73-11.18,4.55,0,7.68,2.87,7.68,7.42,0,4.86-3.66,9.09-9.51,13.9l-10.45,8.52v3.5Zm-24.19,0h6.11l12.7-36.57h-4.75l-10.92,32.71h-.16l-10.92-32.71h-4.75l12.7,36.57Zm-32.03,0h4.55v-32.5h10.87v-4.08h-26.33v4.08h10.92v32.5Z"/>
  <circle class="cls-4" cx="124.5" cy="123.5" r="123.5"/>
  <path class="cls-5" d="m4.31,95h240.38C231.82,40.53,182.9,0,124.5,0S17.18,40.53,4.31,95Z"/>
  <path class="cls-1" d="m187.06,123.15v45.61c0,22.64-11.43,31.68-27.22,31.68-17.42,0-25.91-10.67-27.87-29.5l9.47-1.09c1.63,13.93,5.99,22.21,18.4,22.21,10.89,0,17.85-7.4,17.85-23.19v-45.72h9.36Zm-71.37,9.49c5.75,7.03,8.69,17.24,8.69,29.04,0,22.87-11,39.58-32,39.58-7.75,0-14.15-2.26-19.14-6.27l-7.02,10.32-4.7-3.49,7.51-11.03c-5.83-7.02-8.76-17.23-8.76-29.11,0-22.87,11-39.58,32.11-39.58,7.73,0,14.13,2.25,19.12,6.35l7.12-10.45,4.64,3.53-7.56,11.11Zm-41.1,50l31.87-46.79c-3.56-3.41-8.22-5.39-14.07-5.39-15.17,0-22.54,13.19-22.54,31.23,0,8.33,1.52,15.53,4.74,20.96Zm40.23-20.96c0-8.24-1.53-15.46-4.67-20.89l-31.82,46.75c3.48,3.45,8.16,5.37,14.06,5.37,15.06,0,22.43-13.19,22.43-31.23Z"/>
  <path class="cls-2" d="m145.99,79.1h24.87v-4.08h-17.92l5.96-4.86c6.9-5.54,11.6-10.66,11.6-16.93,0-6.84-5.07-11.23-12.28-11.23-6.64,0-12.07,4.39-13.01,14.42l4.34.52c.94-8.05,4.7-11.18,8.73-11.18,4.55,0,7.68,2.87,7.68,7.42,0,4.86-3.66,9.09-9.51,13.9l-10.45,8.52v3.5Zm-24.19,0h6.11l12.7-36.57h-4.75l-10.92,32.71h-.16l-10.92-32.71h-4.75l12.7,36.57Zm-32.03,0h4.55v-32.5h10.87v-4.08h-26.33v4.08h10.92v32.5Z"/>
</svg>