<?xml version="1.0" encoding="UTF-8" standalone="no"?>
<svg
   xmlns:dc="http://purl.org/dc/elements/1.1/"
   xmlns:cc="http://creativecommons.org/ns#"
   xmlns:rdf="http://www.w3.org/1999/02/22-rdf-syntax-ns#"
   xmlns:svg="http://www.w3.org/2000/svg"
   xmlns="http://www.w3.org/2000/svg"
   viewBox="0 0 2666.6667 502.17334"
   height="502.17334"
   width="2666.6667"
   xml:space="preserve"
   id="svg2"
   version="1.1"><metadata
     id="metadata8"><rdf:RDF><cc:Work
         rdf:about=""><dc:format>image/svg+xml</dc:format><dc:type
           rdf:resource="http://purl.org/dc/dcmitype/StillImage" /></cc:Work></rdf:RDF></metadata><defs
     id="defs6" /><g
     transform="matrix(1.3333333,0,0,-1.3333333,0,502.17333)"
     id="g10"><g
       transform="scale(0.1)"
       id="g12"><g
         transform="scale(1.22699)"
         id="g14"><path
           id="path16"
           style="fill:#cee864;fill-opacity:1;fill-rule:nonzero;stroke:none"
           d="M 4589.86,3069.52 V 0 H 15477.2 c 454.4,0 822.8,368.396 822.8,822.481 V 3069.52 H 4589.86" /></g><path
         id="path18"
         style="fill:#235036;fill-opacity:1;fill-rule:nonzero;stroke:none"
         d="M 0,0 H 5631.73 V 3765.64 H 0 V 0" /><path
         id="path20"
         style="fill:#ffffff;fill-opacity:1;fill-rule:nonzero;stroke:none"
         d="m 1652.64,1267.54 h 150.71 v 1077.48 h 360.32 v 135.12 h -873.08 v -135.12 h 362.05 z m 1061.89,0 h 202.67 l 420.95,1212.6 H 3180.5 L 2818.46,1395.73 h -5.19 l -362.06,1084.41 h -157.62 z m 802.03,0 h 824.58 v 135.13 h -594.17 l 197.47,161.08 c 228.68,183.63 384.58,353.39 384.58,561.28 0,226.92 -168.04,372.44 -407.1,372.44 -219.99,0 -400.15,-145.52 -431.34,-478.12 l 143.78,-17.32 c 31.19,266.78 155.92,370.71 289.3,370.71 150.71,0 254.65,-95.28 254.65,-245.99 0,-161.11 -121.27,-301.42 -315.29,-460.78 l -346.46,-282.36 v -116.07" /><g
         transform="scale(1.13699)"
         id="g22"><path
           id="path24"
           style="fill:#235036;fill-opacity:1;fill-rule:nonzero;stroke:none"
           d="m 10774.5,1072.53 h -9 l -343.1,1002.19 h -200.9 l 455.9,-1257.243 c -58.6,-108.339 -133.1,-153.486 -234.7,-153.486 -51.9,0 -110.6,11.275 -171.5,29.34 l -13.6,-167.036 c 67.8,-20.319 133.2,-31.594 196.3,-31.594 194.2,0 338.7,115.113 422.1,354.366 l 442.5,1225.653 h -203.2 z M 9772.31,2300.42 h 200.88 v 203.14 H 9772.31 Z M 11566.8,889.7 h 187.3 v 1625.15 h -187.3 z m 1896,632 -298,-38.37 c -270.8,-36.1 -363.3,-133.18 -365.6,-264.09 2.3,-124.13 103.8,-209.91 275.3,-209.91 221.2,0 388.3,180.58 388.3,431.11 z m 185,97.07 V 889.7 h -180.5 l -6.8,293.44 h -13.6 c -47.4,-158.02 -194.1,-316.015 -426.5,-316.015 -248.3,0 -406.4,139.935 -406.4,334.055 0,221.22 162.6,349.88 564.3,401.78 l 284.5,36.13 c -2.3,227.96 -146.7,318.24 -304.8,318.24 -151.2,0 -297.9,-67.72 -320.5,-286.65 l -171.5,22.57 c 29.3,275.37 246,404.04 489.8,404.04 297.9,0 492,-155.75 492,-478.52 z M 12124.2,889.7 h 187.5 v 1625.15 h -187.5 z m 3986.2,591.37 c 0,291.18 -162.6,453.69 -343.1,453.69 -185.1,0 -343.1,-130.92 -343.1,-453.69 0,-320.5 158,-451.44 343.1,-451.44 180.5,0 343.1,162.53 343.1,451.44 z M 16300,2514.85 V 889.7 h -180.6 l -9,293.44 h -13.6 c -65.4,-207.667 -227.9,-316.015 -397.2,-316.015 -259.6,0 -465,207.675 -465,613.945 0,408.54 205.4,616.22 465,616.22 167,0 331.8,-108.35 397.2,-316.01 h 13.6 v 733.57 z m -1733.5,-417.56 c -187.4,0 -325,-117.39 -386,-329.57 h -13.5 l -6.8,307 h -180.5 V 889.7 h 187.3 v 525.92 c 0,320.51 137.6,510.12 338.5,510.12 155.8,0 268.6,-90.28 268.6,-352.11 V 889.7 h 189.6 v 701.97 c 0,372.44 -176,505.62 -397.2,505.62 z M 7117.1,1686.11 c 0,169.76 -31.47,318.48 -96.22,430.33 l -655.4,-962.86 c 71.62,-71.03 168.11,-110.61 289.63,-110.61 310.27,0 461.99,271.74 461.99,643.14 z m -828.54,-431.67 656.4,963.73 c -73.39,70.14 -169.33,111.11 -289.85,111.11 -312.52,0 -464.24,-271.76 -464.24,-643.17 0,-171.47 31.29,-319.93 97.69,-431.67 z m 846.55,1029.8 c 118.53,-144.71 179.01,-355.16 179.01,-598.13 0,-471.04 -226.47,-815.275 -659.01,-815.275 -159.53,0 -291.53,46.518 -394.21,129.124 l -144.6,-212.465 -96.75,71.979 154.69,227.117 c -120.15,144.69 -180.41,354.85 -180.41,599.52 0,471.06 226.46,815.29 661.28,815.29 159.26,0 291.11,-46.36 393.72,-130.74 l 146.58,215.23 95.48,-72.79 z M 9485.68,1068.02 c -36.15,-18.07 -110.65,-40.64 -187.34,-40.64 -119.61,0 -239.23,58.69 -239.23,288.93 v 600.39 h 406.25 v 158.02 h -406.25 v 383.69 h -173.88 l -11.26,-270.84 c -2.28,-79.01 -31.57,-119.64 -110.59,-119.64 H 8657.3 V 1916.7 h 212.19 v -632 c 0,-334.049 196.39,-417.575 376.96,-417.575 108.27,0 209.85,29.34 255.06,54.169 z m 293.4,-119.629 c 0,-225.727 -74.49,-284.4 -167.02,-284.4 -45.12,0 -83.46,9.025 -133.15,27.079 l -24.89,-151.232 c 42.92,-20.315 117.41,-42.877 196.39,-42.877 158.05,0 316.01,88.024 316.01,437.876 V 2074.72 H 9779.08 Z M 8503.81,1216.99 c 0,-216.69 -225.71,-349.865 -485.28,-349.865 -237,0 -478.52,119.641 -503.35,428.875 l 173.8,18.06 c 22.57,-243.79 191.87,-309.26 336.31,-309.26 169.29,0 302.47,81.27 302.47,203.16 0,297.94 -769.68,101.57 -769.68,568.8 0,205.4 214.42,320.53 442.38,320.53 216.69,0 460.46,-108.35 487.56,-399.53 l -173.8,-20.32 c -22.56,212.17 -173.8,282.14 -320.52,282.14 -139.95,0 -264.08,-65.45 -264.08,-173.79 0,-309.23 774.19,-110.6 774.19,-568.8" /></g></g></g></svg>