<?xml version="1.0" encoding="UTF-8" standalone="no"?>
<svg
   xmlns:dc="http://purl.org/dc/elements/1.1/"
   xmlns:cc="http://creativecommons.org/ns#"
   xmlns:rdf="http://www.w3.org/1999/02/22-rdf-syntax-ns#"
   xmlns:svg="http://www.w3.org/2000/svg"
   xmlns="http://www.w3.org/2000/svg"
   viewBox="0 0 1503.6934 502.17334"
   height="502.17334"
   width="1503.6934"
   xml:space="preserve"
   id="svg2"
   version="1.1"><metadata
     id="metadata8"><rdf:RDF><cc:Work
         rdf:about=""><dc:format>image/svg+xml</dc:format><dc:type
           rdf:resource="http://purl.org/dc/dcmitype/StillImage" /></cc:Work></rdf:RDF></metadata><defs
     id="defs6" /><g
     transform="matrix(1.3333333,0,0,-1.3333333,0,502.17333)"
     id="g10"><g
       transform="scale(0.1)"
       id="g12"><path
         id="path14"
         style="fill:#235036;fill-opacity:1;fill-rule:nonzero;stroke:none"
         d="M 0,0 H 5631.73 V 3765.63 H 0 V 0" /><path
         id="path16"
         style="fill:#cee864;fill-opacity:1;fill-rule:nonzero;stroke:none"
         d="M 5631.73,3766.28 V 0 h 4636.37 c 557.6,0 1009.6,452.02 1009.6,1009.18 v 2757.1 H 5631.73" /><path
         id="path18"
         style="fill:#ffffff;fill-opacity:1;fill-rule:nonzero;stroke:none"
         d="m 1652.64,1267.54 h 150.71 v 1077.48 h 360.32 v 135.12 h -873.08 v -135.12 h 362.05 z m 1061.89,0 h 202.67 l 420.95,1212.6 H 3180.5 L 2818.46,1395.73 h -5.19 l -362.06,1084.41 h -157.62 z m 802.03,0 h 824.58 v 135.13 h -594.17 l 197.47,161.08 c 228.68,183.63 384.58,353.39 384.58,561.28 0,226.92 -168.04,372.44 -407.1,372.44 -219.99,0 -400.15,-145.52 -431.34,-478.12 l 143.78,-17.32 c 31.19,266.78 155.92,370.71 289.3,370.71 150.71,0 254.65,-95.28 254.65,-245.99 0,-161.11 -121.27,-301.42 -315.29,-460.78 l -346.46,-282.36 v -116.07" /><path
         id="path20"
         style="fill:#235036;fill-opacity:1;fill-rule:nonzero;stroke:none"
         d="m 8092.06,1917.1 c 0,193 -35.78,362.1 -109.4,489.27 L 7237.47,1311.61 c 81.44,-80.75 191.14,-125.77 329.31,-125.77 352.77,0 525.28,308.98 525.28,731.26 z m -942.05,-490.82 746.32,1095.75 c -83.44,79.75 -192.52,126.32 -329.55,126.32 -355.33,0 -527.83,-308.97 -527.83,-731.25 0,-194.97 35.57,-363.77 111.06,-490.82 z m 962.52,1170.87 c 134.77,-164.54 203.54,-403.81 203.54,-680.05 0,-535.57 -257.49,-926.971 -749.29,-926.971 -181.38,0 -331.47,52.891 -448.21,146.811 l -164.41,-241.569 -110,81.84 175.87,258.229 c -136.61,164.52 -205.12,403.45 -205.12,681.66 0,535.57 257.49,926.96 751.87,926.96 181.09,0 330.99,-52.7 447.65,-148.64 l 166.66,244.7 108.56,-82.76 z M 9783.92,2819.5 V 1751.34 c 0,-530.26 -267.69,-741.85 -637.35,-741.85 -407.87,0 -606.73,249.83 -652.62,690.87 l 221.81,25.48 c 38.24,-326.3 140.19,-520.05 430.81,-520.05 254.95,0 418.1,173.35 418.1,543.01 v 1070.7 h 219.25" /></g></g></svg>